<svg width="10" height="11" viewBox="0 0 10 11" fill="none" xmlns="http://www.w3.org/2000/svg">
<path d="M4.26446 3.04443L2.85488 1.41735C2.69238 1.22985 2.39446 1.23068 2.20571 1.41985L1.04654 2.5811C0.701542 2.92651 0.602792 3.43943 0.802375 3.85068C1.99472 6.31942 3.98573 8.31322 6.45279 9.50901C6.86363 9.7086 7.37613 9.60985 7.72113 9.26443L8.89113 8.09235C9.08071 7.90276 9.08113 7.60318 8.89196 7.44068L7.25863 6.0386C7.08779 5.89193 6.82238 5.9111 6.65113 6.08276L6.08279 6.65193C6.0537 6.68242 6.0154 6.70253 5.97377 6.70915C5.93215 6.71577 5.8895 6.70855 5.85238 6.6886C4.92339 6.15364 4.15279 5.38203 3.61904 4.45235C3.59905 4.41516 3.59182 4.37244 3.59844 4.33075C3.60506 4.28905 3.62518 4.25068 3.65571 4.22151L4.22238 3.65443C4.39404 3.48193 4.41279 3.21526 4.26446 3.04401V3.04443Z" stroke="black" stroke-width="0.833333" stroke-linecap="round" stroke-linejoin="round"/>
</svg>
